<?xml version="1.0" encoding="utf-8"?>
<!-- Generator: Adobe Illustrator 24.0.2, SVG Export Plug-In . SVG Version: 6.00 Build 0)  -->
<svg version="1.1" id="Layer_1" xmlns="http://www.w3.org/2000/svg" xmlns:xlink="http://www.w3.org/1999/xlink" x="0px" y="0px"
	 viewBox="0 0 256 256" style="enable-background:new 0 0 256 256;" xml:space="preserve">
<style type="text/css">
	.st0{fill:url(#SVGID_1_);}
	.st1{fill:#FFFFFF;}
</style>
<g>
	<linearGradient id="SVGID_1_" gradientUnits="userSpaceOnUse" x1="34.2535" y1="32.885" x2="165.7861" y2="166.3377">
		<stop  offset="0" style="stop-color:#9B1A73"/>
		<stop  offset="1" style="stop-color:#2252D5"/>
	</linearGradient>
	<circle class="st0" cx="128" cy="128" r="128"/>
</g>
<g>
	<path class="st1" d="M191,39.2H88.4c-7.4,0-13.4,6-13.4,13.4v140.7c0,7.4,6,13.4,13.4,13.4h85L90.8,229c-2.6,0.7-5.3,0.4-7.7-1
		c-2.3-1.3-4-3.5-4.7-6.1L41.6,86.1c-0.7-2.6-0.4-5.3,1-7.7c1.3-2.3,3.5-4,6.1-4.7l20-5.4l-0.9-3.1l-20,5.4
		c-3.4,0.9-6.3,3.2-8.1,6.3c-1.8,3.1-2.2,6.7-1.3,10.1l36.8,135.8c0.9,3.4,3.2,6.3,6.3,8.1c2.1,1.2,4.3,1.8,6.6,1.8
		c1.2,0,2.4-0.2,3.5-0.5l94.2-25.5h5.1c7.4,0,13.4-6,13.4-13.4V52.6C204.4,45.2,198.4,39.2,191,39.2z M201.1,193.3
		c0,5.6-4.5,10.1-10.1,10.1H88.4c-5.6,0-10.1-4.5-10.1-10.1V52.6c0-5.6,4.5-10.1,10.1-10.1H191c5.6,0,10.1,4.5,10.1,10.1V193.3z"/>
	<g>
		<path class="st1" d="M141,59.7l-0.5,0.4c-11.8,7.8-19.2,19.2-21.9,33.9c-2,10.5-1.5,22.6,1.4,35.7c-2.1,1.2-5.5,3.4-8.1,6.9
			c-3.5,4.7-4.5,10.1-3.2,16.2l0.2,1l17.2-3.6c0.7,1.7,1.1,2.6,1.1,2.7l0.3,0.6l3.3,0.1l3.3,5l8.7,0.8l3.5-5.4l3.7,0.1l0.3-0.6
			c0.4-0.8,0.7-1.6,1.1-2.4l17.8,3.9l0.3-0.8c0.1-0.1,1.3-3.3,0.6-8c-1.2-7.4-6.5-12.9-10.9-16.4c3.2-11.6,4.3-22.4,3.3-32.1
			c-0.8-8-3.1-15.3-6.6-21.7c-6.1-11-13.9-15.5-14.3-15.7L141,59.7z M120.4,131.8c0.1,0.3,0.2,0.7,0.2,1c0.1,0.3,0.2,0.7,0.3,1
			c0.2,0.6,0.3,1.2,0.5,1.8c0.1,0.3,0.1,0.6,0.2,0.9c0.2,0.8,0.4,1.5,0.6,2.3c0,0.1,0,0.1,0.1,0.2c0.2,0.8,0.5,1.6,0.7,2.3
			c0.1,0.2,0.2,0.5,0.2,0.7c0.2,0.5,0.3,1,0.5,1.5c0.1,0.3,0.2,0.5,0.3,0.8c0.1,0.4,0.3,0.8,0.4,1.2c0.1,0.3,0.2,0.5,0.3,0.7
			c0.1,0.4,0.3,0.7,0.4,1.1c0.1,0.2,0.2,0.4,0.2,0.7c0,0.1,0.1,0.2,0.1,0.3l-14.9,3.1C108.5,140.4,115.9,134.4,120.4,131.8z
			 M141.8,157l-6.5-0.6l-2-2.9l10.5,0.2L141.8,157z M168,146.2c0.5,2.8,0.1,5-0.2,6.2l-15.6-3.4c0.4-0.9,0.8-1.9,1.2-2.8
			c0.2-0.4,0.4-0.9,0.6-1.3c0.6-1.6,1.2-3.2,1.8-4.7c0.1-0.3,0.2-0.6,0.3-0.9c0.5-1.3,0.9-2.5,1.3-3.8c0.2-0.5,0.3-1.1,0.5-1.6
			c0.2-0.7,0.5-1.4,0.7-2.1C163.9,136.1,167.1,141.1,168,146.2z M154,76.8c3.4,6.2,5.5,13.2,6.3,20.9c1,9.7-0.2,20.4-3.4,31.9
			c-0.9,3.1-1.9,6.3-3.1,9.6s-2.5,6.6-4,10c-0.4,0.8-0.8,1.7-1.1,2.5l-1.1,0l0,0l-12.2-0.3l-6.6-0.2c-0.2-0.6-0.6-1.5-1.1-2.8
			c-0.8-2-1.8-4.7-2.7-7.8c-1-3.1-2-6.8-2.9-10.8l0,0c-3-13.2-3.5-25.2-1.5-35.7c2.6-13.8,9.5-24.6,20.5-32.1c0.7,0.5,2.2,1.5,4,3.2
			C147.5,67.6,151,71.3,154,76.8z"/>
		<path class="st1" d="M131,86.5c-5.2,5-5.4,13.3-0.4,18.6c5,5.2,13.3,5.4,18.6,0.4c5.2-5,5.4-13.3,0.4-18.6
			C144.5,81.7,136.2,81.5,131,86.5z M147.7,103.9c-4.4,4.2-11.4,4-15.6-0.4c-4.2-4.4-4.1-11.4,0.4-15.6c4.4-4.2,11.4-4.1,15.6,0.4
			C152.2,92.7,152.1,99.7,147.7,103.9z"/>
		
			<rect x="129.6" y="136.7" transform="matrix(2.773285e-02 -0.9996 0.9996 2.773285e-02 -2.3235 273.027)" class="st1" width="19.2" height="2.1"/>
		<path class="st1" d="M140.9,163.2c-0.4,0.4-0.5,1-0.2,1.5c2.2,2.8,3.1,5.4,2.5,7.7c-0.7,3.2-3.9,5.3-5.1,6c-3-2.1-4.7-4.4-5-6.9
			c-0.4-3.6,2.5-6.5,2.6-6.6c0.4-0.4,0.4-1.1,0-1.5c-0.4-0.4-1.1-0.4-1.5,0c0,0,0,0,0,0c-0.1,0.1-3.6,3.6-3.2,8.2
			c0.3,3.3,2.5,6.2,6.4,8.8c0.3,0.2,0.7,0.2,1,0.1c0.1-0.1,1.9-0.9,3.7-2.6c1.3-1.2,2.6-2.9,3.1-5.1c0.7-3-0.3-6.2-3-9.5
			C142,162.9,141.4,162.9,140.9,163.2z"/>
		<path class="st1" d="M124.1,169.3c0.1,0,1.3-0.5,2.4-1.5c1-0.9,1.9-2.3,2.1-4.3c0.1-0.6-0.4-1.1-0.9-1.1c-0.6-0.1-1.1,0.4-1.1,0.9
			c-0.3,3.1-3,4.1-3.1,4.1c-0.5,0.2-0.8,0.8-0.6,1.3C123,169.2,123.6,169.4,124.1,169.3z"/>
		<path class="st1" d="M148.4,163.8c0,0.2,0.2,4.3,4.3,6c0.4,0.2,0.8,0.1,1.1-0.2c0.1-0.1,0.2-0.2,0.2-0.3c0.2-0.5,0-1.1-0.5-1.4
			c-2.8-1.2-3-4.1-3-4.2c0-0.6-0.5-1-1.1-1C148.8,162.7,148.3,163.2,148.4,163.8z"/>
		<path class="st1" d="M136.9,185.3l0,1c0,0.7,0.6,1.3,1.3,1.4c0.7,0,1.3-0.6,1.4-1.3l0-1c0-0.7-0.6-1.3-1.3-1.4
			C137.5,183.9,136.9,184.5,136.9,185.3z"/>
		<path class="st1" d="M94.3,132.5c0.2-0.2,0.3-0.5,0.3-0.7l0-8.1c0-0.6-0.5-1-1-1c-0.6,0-1,0.5-1,1l0,8.1c0,0.6,0.5,1,1,1
			C93.9,132.8,94.1,132.7,94.3,132.5z"/>
		<path class="st1" d="M108.5,112.8l0,5.3c0,0.6,0.5,1,1,1c0.3,0,0.5-0.1,0.7-0.3c0.2-0.2,0.3-0.5,0.3-0.7l0-5.3c0-0.6-0.5-1-1-1
			S108.5,112.2,108.5,112.8z"/>
		<path class="st1" d="M101.5,110.7c0.2-0.2,0.3-0.5,0.3-0.7l0.1-10.3c0-0.6-0.5-1-1-1c-0.6,0-1,0.5-1,1l-0.1,10.3c0,0.6,0.5,1,1,1
			C101.1,110.9,101.3,110.8,101.5,110.7z"/>
		<path class="st1" d="M101.3,119.4c0.2-0.2,0.3-0.5,0.3-0.7l0-3.3c0-0.6-0.5-1-1-1c-0.6,0-1,0.5-1,1l0,3.3c0,0.6,0.5,1,1,1
			C100.9,119.7,101.1,119.6,101.3,119.4z"/>
		<path class="st1" d="M178.4,112.9l-0.4,12.4c0,0.6,0.4,1.1,1,1.1c0.3,0,0.6-0.1,0.8-0.3c0.2-0.2,0.3-0.4,0.3-0.7l0.4-12.4
			c0-0.6-0.4-1.1-1-1.1C178.9,111.9,178.4,112.3,178.4,112.9z"/>
		<path class="st1" d="M177.8,130.8l0,3.3c0,0.6,0.5,1,1,1c0.3,0,0.5-0.1,0.7-0.3c0.2-0.2,0.3-0.5,0.3-0.7l0-3.3c0-0.6-0.5-1-1-1
			C178.2,129.8,177.8,130.3,177.8,130.8z"/>
		<path class="st1" d="M170.5,121.8c0.2-0.2,0.3-0.4,0.3-0.7l0.1-8.6c0-0.6-0.5-1-1-1c-0.6,0-1,0.5-1,1l-0.1,8.6c0,0.6,0.5,1,1,1
			C170.1,122,170.3,121.9,170.5,121.8z"/>
		<path class="st1" d="M171.2,106.9l0-3.3c0-0.6-0.5-1-1-1c-0.6,0-1,0.5-1,1l0,3.3c0,0.6,0.5,1,1,1c0.3,0,0.5-0.1,0.7-0.3
			C171,107.5,171.2,107.2,171.2,106.9z"/>
	</g>
</g>
</svg>
